<?xml version="1.0" encoding="UTF-8" standalone="no"?>
<svg width="128px" height="128px" viewBox="0 0 128 128" version="1.1" xmlns="http://www.w3.org/2000/svg" xmlns:xlink="http://www.w3.org/1999/xlink">
    <!-- Generator: Sketch 3.8.3 (29802) - http://www.bohemiancoding.com/sketch -->
    <title>128x128</title>
    <desc>Created with Sketch.</desc>
    <defs></defs>
    <g id="Home" stroke="none" stroke-width="1" fill="none" fill-rule="evenodd">
        <g id="128x128">
            <g id="Group" transform="translate(5.000000, 10.000000)">
                <path d="M18.8744015,101.217325 C12.2736677,101.217325 5.92610337,100.16074 0,98.2116138 C7.15278191,73.6410327 30.341062,55.6428571 57.8366656,55.6428571 C64.1469562,55.6428571 70.2303754,56.5908404 75.9451518,58.3486911 C69.301686,83.019182 46.2682825,101.217325 18.8744015,101.217325 Z" id="Combined-Shape" stroke="#FD6164" stroke-width="7.375"></path>
                <path d="M116.507652,98.2116138 C110.581548,100.16074 104.233984,101.217325 97.6332503,101.217325 C70.2393694,101.217325 47.2059658,83.019182 40.5625,58.3486911 C46.2772764,56.5908404 52.3606956,55.6428571 58.6709862,55.6428571 C86.1665898,55.6428571 109.35487,73.6410327 116.507652,98.2116138 Z" id="Combined-Shape" stroke="#FD6164" stroke-width="7.375"></path>
                <path d="M95.3725296,64.662229 C89.4464263,66.6113555 83.098862,67.6679404 76.4981281,67.6679404 C49.1042472,67.6679404 26.0708436,49.4697971 19.4273778,24.7993062 C25.1421542,23.0414556 31.2255734,22.0934723 37.535864,22.0934723 C65.0314676,22.0934723 88.2197477,40.0916479 95.3725296,64.662229 Z" id="Combined-Shape" stroke="#FD6164" stroke-width="7.375" transform="translate(57.399954, 44.880706) rotate(-120.000000) translate(-57.399954, -44.880706) "></path>
                <path d="M36.3540471,54.1650732 C43.2777541,52.1826886 50.5949945,51.0974483 58.1641752,51.0472944 C65.5037097,51.0959266 72.6063597,52.1177898 79.3430324,53.9871201 C77.8267126,62.2080221 74.991713,70.1337181 70.9258835,77.4187443 C67.2976728,82.7020433 63.0059536,87.5158194 58.1669291,91.7468027 C53.0014499,86.6955125 48.4230814,80.8522638 44.62344,74.2710919 C40.8891146,67.8030505 38.1481596,61.0399839 36.3540471,54.1650732 Z" id="Combined-Shape" stroke="#FFFFFF" stroke-width="3.6875"></path>
            </g>
        </g>
    </g>
</svg>