<?xml version="1.0" encoding="UTF-8" standalone="no"?>
<svg width="128px" height="128px" viewBox="0 0 128 128" version="1.1" xmlns="http://www.w3.org/2000/svg" xmlns:xlink="http://www.w3.org/1999/xlink">
    <!-- Generator: Sketch 3.8.3 (29802) - http://www.bohemiancoding.com/sketch -->
    <title>128x128</title>
    <desc>Created with Sketch.</desc>
    <defs></defs>
    <g id="Home" stroke="none" stroke-width="1" fill="none" fill-rule="evenodd">
        <g id="128x128">
            <g id="Group" transform="translate(5.000000, 11.000000)">
                <path d="M18.8744015,100.217325 C12.2736677,100.217325 5.92610337,99.1607404 0,97.2116138 C7.15278191,72.6410327 30.341062,54.6428571 57.8366656,54.6428571 C64.1469562,54.6428571 70.2303754,55.5908404 75.9451518,57.3486911 C69.301686,82.019182 46.2682825,100.217325 18.8744015,100.217325 Z" id="Combined-Shape" stroke="#7AC3FF" stroke-width="7.375"></path>
                <path d="M116.507652,97.2116138 C110.581548,99.1607404 104.233984,100.217325 97.6332503,100.217325 C70.2393694,100.217325 47.2059658,82.019182 40.5625,57.3486911 C46.2772764,55.5908404 52.3606956,54.6428571 58.6709862,54.6428571 C86.1665898,54.6428571 109.35487,72.6410327 116.507652,97.2116138 Z" id="Combined-Shape" stroke="#7AC3FF" stroke-width="7.375"></path>
                <path d="M95.3725296,63.662229 C89.4464263,65.6113555 83.098862,66.6679404 76.4981281,66.6679404 C49.1042472,66.6679404 26.0708436,48.4697971 19.4273778,23.7993062 C25.1421542,22.0414556 31.2255734,21.0934723 37.535864,21.0934723 C65.0314676,21.0934723 88.2197477,39.0916479 95.3725296,63.662229 Z" id="Combined-Shape" stroke="#7AC3FF" stroke-width="7.375" transform="translate(57.399954, 43.880706) rotate(-120.000000) translate(-57.399954, -43.880706) "></path>
                <path d="M36.3540471,53.1650732 C43.2777541,51.1826886 50.5949945,50.0974483 58.1641752,50.0472944 C65.5037097,50.0959266 72.6063597,51.1177898 79.3430324,52.9871201 C77.8267126,61.2080221 74.991713,69.1337181 70.9258835,76.4187443 C67.2976728,81.7020433 63.0059536,86.5158194 58.1669291,90.7468027 C53.0014499,85.6955125 48.4230814,79.8522638 44.62344,73.2710919 C40.8891146,66.8030505 38.1481596,60.0399839 36.3540471,53.1650732 Z" id="Combined-Shape" stroke="#FFFFFF" stroke-width="3.6875"></path>
            </g>
        </g>
    </g>
</svg>