<?xml version="1.0" encoding="UTF-8" standalone="no"?>
<svg width="128px" height="128px" viewBox="0 0 128 128" version="1.1" xmlns="http://www.w3.org/2000/svg" xmlns:xlink="http://www.w3.org/1999/xlink">
    <!-- Generator: Sketch 3.8.3 (29802) - http://www.bohemiancoding.com/sketch -->
    <title>128x128</title>
    <desc>Created with Sketch.</desc>
    <defs></defs>
    <g id="Home" stroke="none" stroke-width="1" fill="none" fill-rule="evenodd">
        <g id="128x128">
            <path d="M24.8744015,111.217325 C18.2736677,111.217325 11.9261034,110.16074 6,108.211614 C13.1527819,83.6410327 36.341062,65.6428571 63.8366656,65.6428571 C70.1469562,65.6428571 76.2303754,66.5908404 81.9451518,68.3486911 C75.301686,93.019182 52.2682825,111.217325 24.8744015,111.217325 Z" id="Combined-Shape" stroke="#272821" stroke-width="7.375"></path>
            <path d="M122.507652,108.211614 C116.581548,110.16074 110.233984,111.217325 103.63325,111.217325 C76.2393694,111.217325 53.2059658,93.019182 46.5625,68.3486911 C52.2772764,66.5908404 58.3606956,65.6428571 64.6709862,65.6428571 C92.1665898,65.6428571 115.35487,83.6410327 122.507652,108.211614 Z" id="Combined-Shape" stroke="#272821" stroke-width="7.375"></path>
            <path d="M101.37253,74.662229 C95.4464263,76.6113555 89.098862,77.6679404 82.4981281,77.6679404 C55.1042472,77.6679404 32.0708436,59.4697971 25.4273778,34.7993062 C31.1421542,33.0414556 37.2255734,32.0934723 43.535864,32.0934723 C71.0314676,32.0934723 94.2197477,50.0916479 101.37253,74.662229 Z" id="Combined-Shape" stroke="#272821" stroke-width="7.375" transform="translate(63.399954, 54.880706) rotate(-120.000000) translate(-63.399954, -54.880706) "></path>
            <path d="M42.3540471,64.1650732 C49.2777541,62.1826886 56.5949945,61.0974483 64.1641752,61.0472944 C71.5037097,61.0959266 78.6063597,62.1177898 85.3430324,63.9871201 C83.8267126,72.2080221 80.991713,80.1337181 76.9258835,87.4187443 C73.2976728,92.7020433 69.0059536,97.5158194 64.1669291,101.746803 C59.0014499,96.6955125 54.4230814,90.8522638 50.62344,84.2710919 C46.8891146,77.8030505 44.1481596,71.0399839 42.3540471,64.1650732 Z" id="Combined-Shape" stroke="#C4EFF8" stroke-width="3.6875"></path>
        </g>
    </g>
</svg>